<svg version="1.1" id="Layer_1" xmlns="http://www.w3.org/2000/svg" xmlns:xlink="http://www.w3.org/1999/xlink" x="0px" y="0px" width="25px" height="33px" viewBox="-869 513 25 33" enable-background="new -869 513 25 33" xml:space="preserve">
<g id="WoWS_x5F_Blitz_x5F_Logo_x5F_Simplified_x5F_BlackR_15_">
	<path id="WoWS_x5F_Blitz_x5F_Logo_x5F_Simplified_x5F_BlackR_16_" fill-rule="evenodd" clip-rule="evenodd" fill="#FFFFFF" d="
		M-856.5,542.6l-9.5-5.4v-10.5l4.4,2.5v5.3l2.7,1.5v-9.5h-1l-3.9-2.2v-2.3h4.9v-1.5l-2.3-2V516h9.4v2.5l-2.3,2v1.5h4.9v2.3l-3.9,2.2
		h-1v9.5l2.7-1.5v-5.3l4.4-2.5v10.5L-856.5,542.6z M-856.5,544.3l11-6.3v-20.7l-4.8-2.8h-12.3l-4.8,2.8V538L-856.5,544.3z
		 M-856.5,546l-12.5-7.1v-22.5l5.9-3.4h13.1l5.9,3.4v22.5L-856.5,546z"></path>
</g>
</svg>