<svg version="1.1" id="Слой_2" xmlns="http://www.w3.org/2000/svg" xmlns:xlink="http://www.w3.org/1999/xlink" x="0px" y="0px" width="36px" height="39px" viewBox="0 0 36 39" style="enable-background:new 0 0 36 39;" xml:space="preserve">
<style type="text/css">
	.st0{fill:#FFFFFF;}
</style>
<g>
	<path class="st0" d="M26.1,0C20.9,0,15.1,0,9.9,0l-7,3.9v26.8L18,39l15.1-8.3V3.9L26.1,0z M30.8,29.4l-12.8,7l-12.8-7V5.2l5.4-2.9
		c5,0,9.9,0,15,0l5.3,2.9V29.4z"></path>
	<polygon class="st0" points="21.6,16.1 25.9,13.7 25.9,11.2 20.6,11.2 20.6,9.7 23.2,7.7 23.2,5 12.8,5 12.8,7.7 15.4,9.7 
		15.4,11.2 10.1,11.2 10.1,13.7 14.4,16.1 15.4,16.1 15.4,26 12.5,24.4 12.5,18.9 7.7,16.2 7.7,27.3 18,33 28.3,27.3 28.3,16.2 
		23.5,18.9 23.5,24.4 20.6,26 20.6,16.1 	"></polygon>
</g>
</svg>