<svg version="1.1" id="Layer_1" xmlns="http://www.w3.org/2000/svg" xmlns:xlink="http://www.w3.org/1999/xlink" x="0px" y="0px" width="57px" height="43px" viewBox="0 0 57 43" enable-background="new 0 0 57 43" xml:space="preserve">
<path fill="#FFFFFF" d="M18.3065,9.86905l10.1746-1.313l10.2979,1.3418v1.1885l1.6055,0.0096l-0.019-2.3482l-11.9034-1.7541
	L16.701,8.73815v2.3769l1.558,0.0097L18.3065,9.86905z M32.6896,12.09275v9.7763c0,0-1.045,1.3994-1.805,2.0894
	c-0.0286-3.738-0.0286-12.067-0.0286-12.067l-2.4035-2.2811l-2.3939,2.2045l-0.0096,12.1628l-1.8905-2.0607l0.0286-9.8721
	L0,12.09275l4.6075,3.7571l14.8961,0.0096l0.0095,7.9745l3.5719,3.1341l2.9546-2.9712l-0.0475,6.1437l2.527,2.2141l2.3655-2.2332
	l0.0094-6.1438l3.2301,2.8658l3.3915-3.2491l-0.0666-7.6678h15.0006L57,12.06395L32.6896,12.09275z M7.3246,17.77645l4.6264,4.8402
	l2.7835-0.0096l-0.019-4.8019L7.3246,17.77645z M39.064,23.83395l-10.5735,10.4089l-10.6114-10.3035l-0.0096-6.0287l-1.292,0.0095
	l0.0096,6.7572l11.875,11.329l11.8939-11.4153l0.0095-6.7571l-1.2729,0.0096L39.064,23.83395z M42.3035,22.64535l2.7835-0.0095
	l4.56-4.8786l-7.372,0.0288L42.3035,22.64535z"></path>
</svg>