<svg id="Layer_1" data-name="Layer 1" xmlns="http://www.w3.org/2000/svg" width="50.50" height="56" viewBox="0 0 1640.42 1819.21"><defs><style>.cls-1{fill:#fff;fill-rule:evenodd;}</style></defs><path class="cls-1" d="M1230.3,410.1H410.1v830.83L820.21,1410.1l410.1-169.17Zm-69.2,784.62-340.89,140.4-340.89-140.4V479.32H1161.1Z"></path><polygon class="cls-1" points="1091.86 1148.35 1091.86 857.98 956.93 913.65 956.93 1057.95 887.7 1086.51 887.7 853.03 922.29 853.03 1022.63 811.65 1022.63 718.09 887.7 718.09 887.7 683.46 953.42 642.16 953.42 548.55 687 548.55 687 642.08 752.77 683.46 752.77 718.09 617.83 718.09 617.83 811.7 718.17 853.03 752.77 853.03 752.77 1086.51 683.49 1057.95 683.49 913.65 548.56 857.97 548.56 1148.37 820.21 1260.35 1091.86 1148.35"></polygon></svg>